<svg width="140" height="16" viewBox="0 0 140 16" fill="none" xmlns="http://www.w3.org/2000/svg">
<path d="M32.1887 4.02461V7.54461H37.481V9.31691H32.1887V14.5846H30.441V2.27692H37.481V4.02461H32.1887ZM37.481 4.02461H39.2287V7.54461H37.481V4.02461Z" fill="#EEEFF4"/>
<path d="M47.7145 4.02461H45.9668V12.8369H47.7145V14.5846H42.4468V12.8369H44.1945V4.02461H42.4468V2.27692H47.7145V4.02461Z" fill="#EEEFF4"/>
<path d="M51.9276 14.5846V11.0646H53.6753V14.5846H51.9276ZM53.6753 11.0646V9.31691H55.4476V11.0646H53.6753ZM55.4476 7.54461H57.1953V9.31691H55.4476V7.54461ZM58.9676 11.0646H57.1953V9.31691H58.9676V11.0646ZM60.7153 14.5846H58.9676V11.0646H60.7153V14.5846ZM53.6753 5.79692H55.4476V7.54461H53.6753V5.79692ZM51.9276 2.27692H53.6753V5.79692H51.9276V2.27692ZM58.9676 5.79692V7.54461H57.1953V5.79692H58.9676ZM60.7153 2.27692V5.79692H58.9676V2.27692H60.7153Z" fill="#EEEFF4"/>
<path d="M73.7057 4.02461H66.6657V7.54461H73.7057V9.31691H66.6657V12.8369H73.7057V14.5846H64.918V2.27692H73.7057V4.02461Z" fill="#EEEFF4"/>
<path d="M79.656 12.8369H86.696V14.5846H77.9084V2.27692H79.656V12.8369Z" fill="#EEEFF4"/>
<path d="M91.4157 4.02461H93.188V5.79692H91.4157V14.5846H89.668V2.27692H91.4157V4.02461ZM93.188 5.79692H94.9357V7.54461H93.188V5.79692ZM94.9357 9.31691V7.54461H96.708V9.31691H94.9357ZM96.708 7.54461V5.79692H98.4557V7.54461H96.708ZM100.228 2.27692H101.976V14.5846H100.228V5.79692H98.4557V4.02461H100.228V2.27692Z" fill="#EEEFF4"/>
<path d="M113.232 2.27692V4.02461H107.94V2.27692H113.232ZM113.232 4.02461H114.98V14.5846H113.232V9.31691H107.94V14.5846H106.192V4.02461H107.94V7.54461H113.232V4.02461Z" fill="#EEEFF4"/>
<path d="M127.97 7.54461H126.222V4.02461H127.97V7.54461ZM120.93 7.54461H126.222V9.31691H127.97V14.5846H126.222V9.31691H120.93V14.5846H119.182V2.27692H126.222V4.02461H120.93V7.54461Z" fill="#EEEFF4"/>
<path d="M139.73 2.27692V4.02461H136.21V14.5846H134.462V4.02461H130.942V2.27692H139.73Z" fill="#EEEFF4"/>
<path d="M16.0772 3.97105V1.99759H14.0989V0H12.082V1.99759V2.00724H10.0748V3.99517H10.0072H8V2.00724H5.99759V1.99759V0H3.97587V1.99759H1.99276V3.97105H0V5.94934V5.99276V7.9807H2.01206V9.99276H3.97587H4.01448V11.9903H6.02171V13.9928H8.02895V16H10.0458V13.9928H12.0531V11.9903H14.0458V9.99276H14.0989H16.0676V7.9807H18.07V5.99276V5.94934V3.97105H16.0772V3.97105ZM12.029 11.9469V11.9566V11.9469ZM6.03136 11.9566V11.9469Z" fill="#F44018"/>
</svg>
